<svg width="26" height="26" viewBox="0 0 26 26" fill="none" xmlns="http://www.w3.org/2000/svg">
<path d="M14.7705 2.229H11.229C6.25844 2.229 2.229 6.25844 2.229 11.229V14.7705C2.229 19.7411 6.25844 23.7705 11.229 23.7705H14.7705C19.7411 23.7705 23.7705 19.7411 23.7705 14.7705V11.229C23.7705 6.25844 19.7411 2.229 14.7705 2.229Z" stroke="white" stroke-width="4"/>
<path d="M7.24512 22.3354C7.24512 19.3361 9.67646 16.9048 12.6757 16.9048H13.3838C16.3504 16.9048 18.7552 19.3096 18.7552 22.2762V22.3354" stroke="white" stroke-width="4" stroke-linecap="round" stroke-linejoin="round"/>
<path d="M13 11.7633C13.8234 11.7633 14.4908 11.0958 14.4908 10.2725C14.4908 9.44918 13.8234 8.78174 13 8.78174C12.1767 8.78174 11.5093 9.44918 11.5093 10.2725C11.5093 11.0958 12.1767 11.7633 13 11.7633Z" fill="white" stroke="white" stroke-width="3.11733" stroke-linecap="round" stroke-linejoin="round"/>
</svg>
