<svg width="570" height="326" viewBox="0 0 570 326" fill="none" xmlns="http://www.w3.org/2000/svg">
<path d="M417.55 243.052C412.803 243.052 408.163 241.644 404.216 239.007C400.27 236.37 397.193 232.622 395.377 228.236C393.56 223.851 393.085 219.025 394.011 214.37C394.937 209.714 397.223 205.438 400.579 202.081C403.936 198.725 408.212 196.439 412.868 195.513C417.523 194.587 422.349 195.062 426.734 196.879C431.12 198.695 434.868 201.771 437.505 205.718C440.142 209.665 441.55 214.305 441.55 219.052C441.55 225.417 439.021 231.522 434.521 236.023C430.02 240.523 423.915 243.052 417.55 243.052ZM152.45 243.052C147.703 243.052 143.063 241.644 139.116 239.007C135.17 236.37 132.093 232.622 130.277 228.236C128.46 223.851 127.985 219.025 128.911 214.37C129.837 209.714 132.123 205.438 135.479 202.081C138.836 198.725 143.112 196.439 147.768 195.513C152.423 194.587 157.249 195.062 161.634 196.879C166.02 198.695 169.768 201.771 172.405 205.718C175.042 209.665 176.45 214.305 176.45 219.052C176.45 225.417 173.921 231.522 169.421 236.023C164.92 240.523 158.815 243.052 152.45 243.052ZM439.465 106.289C432.285 101.863 429.628 92.5498 433.847 85.2458L474.09 15.5719C474.853 14.4352 475.374 13.154 475.621 11.8077C475.869 10.4613 475.837 9.07854 475.529 7.74491C475.22 6.41128 474.641 5.15523 473.827 4.05456C473.013 2.95388 471.982 2.03202 470.797 1.34608C469.612 0.660135 468.3 0.224713 466.94 0.0667791C465.58 -0.0911544 464.202 0.0317639 462.892 0.427924C461.582 0.824084 460.367 1.48505 459.322 2.36988C458.278 3.25471 457.426 4.34455 456.82 5.57193L415.052 77.9135C411.205 84.5757 402.956 87.2087 395.802 84.3792C360.565 70.4416 322.975 63.2621 285 63.2621C247.025 63.2621 209.435 70.4416 174.198 84.3792C167.044 87.2087 158.795 84.5757 154.948 77.9136L113.18 5.57193C112.574 4.34455 111.722 3.25471 110.678 2.36988C109.633 1.48505 108.418 0.824084 107.108 0.427924C105.798 0.0317639 104.42 -0.0911544 103.06 0.0667791C101.7 0.224713 100.388 0.660135 99.2029 1.34608C98.0182 2.03202 96.9871 2.95388 96.1732 4.05456C95.3593 5.15523 94.7801 6.41128 94.4714 7.74491C94.1627 9.07854 94.1311 10.4613 94.3786 11.8077C94.626 13.154 95.1473 14.4352 95.91 15.5719L136.153 85.2451C140.371 92.5493 137.714 101.863 130.534 106.289C62.8483 148.004 14.9589 216.807 0.508172 298.177C-2.04992 312.581 9.55025 325.122 24.1798 325.122H545.82C560.45 325.122 572.05 312.581 569.492 298.177C555.04 216.807 507.144 148.004 439.465 106.289Z" fill="white"/>
</svg>
