<svg width="374" height="447" viewBox="0 0 374 447" fill="none" xmlns="http://www.w3.org/2000/svg">
<path d="M315.588 235.216C315.416 203.684 327.646 178.796 352.404 159.473C359.234 154.143 361.46 144.301 355.463 138.049C337.134 118.942 312.179 108.236 280.888 105.816C245.388 103.016 206.588 126.516 192.388 126.516C177.388 126.516 142.988 106.816 115.988 106.816C60.1877 107.716 0.887695 151.316 0.887695 240.016C0.887695 266.216 5.68769 293.283 15.2877 321.216C28.0877 357.916 74.2877 447.916 122.488 446.416C147.688 445.816 165.488 428.516 198.288 428.516C230.088 428.516 246.588 446.416 274.688 446.416C318.358 445.787 356.539 379.675 372.686 339.571C375.521 332.53 372.053 324.77 365.546 320.863C312.523 289.029 315.588 236.994 315.588 235.216ZM258.988 71.0161C277.872 48.6042 282.497 27.5798 283.289 13.2388C283.741 5.06819 276.384 -1.17598 268.454 0.841857C248.382 5.94905 227.862 18.553 215.088 33.4161C200.346 50.095 190.714 70.109 189.358 92.5016C188.912 99.8725 194.957 105.922 202.292 105.065C223.377 102.604 242.643 90.1132 258.988 71.0161Z" fill="white"/>
</svg>
