<svg width="24" height="24" viewBox="0 0 24 24" fill="none" xmlns="http://www.w3.org/2000/svg">
<rect x="1.58621" y="1.58621" width="20.8276" height="20.8276" rx="9.51724" stroke="white" stroke-width="3.17241"/>
<path d="M13.3874 9.18168C13.7339 9.06596 13.9071 9.0081 14.0268 9.00928C14.4152 9.01308 14.7292 9.32678 14.7335 9.71519C14.7348 9.83482 14.6772 10.0081 14.5619 10.3547L13.5943 13.2634C13.5613 13.3626 13.5448 13.4122 13.5227 13.4567C13.4535 13.5963 13.3405 13.7094 13.201 13.7788C13.1565 13.8009 13.1069 13.8175 13.0077 13.8506L10.1084 14.819C9.76195 14.9347 9.58872 14.9926 9.46908 14.9914C9.08067 14.9876 8.76659 14.6739 8.76232 14.2855C8.76101 14.1658 8.81866 13.9925 8.93396 13.6459L9.90158 10.7373C9.93457 10.6381 9.95107 10.5885 9.97315 10.544C10.0424 10.4044 10.1553 10.2912 10.2949 10.2219C10.3394 10.1997 10.389 10.1832 10.4881 10.1501L13.3874 9.18168Z" fill="white" stroke="white" stroke-width="3.17241" stroke-linecap="round" stroke-linejoin="round"/>
</svg>
