<svg width="28" height="28" viewBox="0 0 28 28" fill="none" xmlns="http://www.w3.org/2000/svg">
<path d="M18.335 1.66504H9.66504C5.24676 1.66504 1.66504 5.24677 1.66504 9.66505V18.335C1.66504 22.7533 5.24677 26.335 9.66505 26.335H18.335C22.7533 26.335 26.335 22.7533 26.335 18.335V9.66504C26.335 5.24676 22.7533 1.66504 18.335 1.66504Z" stroke="white" stroke-width="3" stroke-linecap="round" stroke-linejoin="round"/>
<path d="M18.7825 13.2908C18.9317 14.2968 18.7598 15.3242 18.2914 16.2269C17.8231 17.1296 17.082 17.8616 16.1736 18.3188C15.2652 18.776 14.2357 18.9352 13.2317 18.7736C12.2276 18.6121 11.3 18.138 10.5809 17.4189C9.86183 16.6998 9.38777 15.7722 9.22621 14.7682C9.06464 13.7641 9.22379 12.7347 9.68101 11.8263C10.1382 10.9179 10.8702 10.1768 11.7729 9.70839C12.6756 9.24 13.703 9.06817 14.709 9.21734C15.7351 9.3695 16.6851 9.84766 17.4187 10.5812C18.1522 11.3147 18.6303 12.2647 18.7825 13.2908Z" stroke="white" stroke-width="3" stroke-linecap="round" stroke-linejoin="round"/>
<path d="M20.6001 7.7002H20.6101" stroke="white" stroke-width="3" stroke-linecap="round" stroke-linejoin="round"/>
</svg>
