<svg width="59" height="91" viewBox="0 0 59 91" fill="none" xmlns="http://www.w3.org/2000/svg">
<g clip-path="url(#clip0_1009_7)">
<path d="M7.82409 43.7642L13.013 41.1691C18.6251 38.3625 22.731 33.2442 24.2536 27.1569L28.3105 10.938C28.6803 9.45968 30.7634 9.41076 31.2022 10.8701L32.5132 15.2307L34.9544 26.629C36.3222 33.0155 40.5189 38.434 46.3604 41.3556L51.1758 43.7639C53.0181 44.6853 53.0181 47.3145 51.1758 48.2358L45.9123 50.8681C40.3466 53.6516 36.2599 58.7101 34.7082 64.7365L30.9526 79.3227C30.566 80.8241 28.4339 80.824 28.0473 79.3228L24.2917 64.7369C22.7401 58.7109 18.6537 53.6526 13.0884 50.8691L7.824 48.2361C5.98172 47.3146 5.98177 44.6855 7.82409 43.7642Z" fill="white" stroke="white" stroke-width="3"/>
</g>
<defs>
<clipPath id="clip0_1009_7">
<rect width="59" height="90.98" fill="white"/>
</clipPath>
</defs>
</svg>
