<svg width="176" height="54" viewBox="0 0 176 54" fill="none" xmlns="http://www.w3.org/2000/svg">
<g clip-path="url(#clip0_1032_2)">
<path d="M159.5 0.5H17.5C8.11116 0.5 0.5 8.11116 0.5 17.5V36.5C0.5 45.8888 8.11116 53.5 17.5 53.5H159.5C168.889 53.5 176.5 45.8888 176.5 36.5V17.5C176.5 8.11116 168.889 0.5 159.5 0.5Z" fill="black"/>
<path d="M54.5142 14.272V15.976H57.2182V16.856H54.5142V19H53.4742V13.4H57.5622V14.272H54.5142ZM62.7679 18.128V19H58.5679V13.4H62.6559V14.272H59.6079V15.728H62.3119V16.584H59.6079V18.128H62.7679ZM67.5593 17.704H64.7593L64.2073 19H63.1353L65.6553 13.4H66.6793L69.2073 19H68.1193L67.5593 17.704ZM67.2153 16.888L66.1593 14.44L65.1113 16.888H67.2153ZM70.7742 14.28H68.9182V13.4H73.6702V14.28H71.8142V19H70.7742V14.28ZM76.7572 19.08C75.9838 19.08 75.3812 18.864 74.9492 18.432C74.5172 17.9947 74.3012 17.3707 74.3012 16.56V13.4H75.3412V16.52C75.3412 17.6187 75.8158 18.168 76.7652 18.168C77.7092 18.168 78.1812 17.6187 78.1812 16.52V13.4H79.2052V16.56C79.2052 17.3707 78.9892 17.9947 78.5572 18.432C78.1305 18.864 77.5305 19.08 76.7572 19.08ZM84.3257 19L83.1817 17.36C83.1337 17.3653 83.0617 17.368 82.9657 17.368H81.7017V19H80.6617V13.4H82.9657C83.451 13.4 83.8723 13.48 84.2297 13.64C84.5923 13.8 84.8697 14.0293 85.0617 14.328C85.2537 14.6267 85.3497 14.9813 85.3497 15.392C85.3497 15.8133 85.2457 16.176 85.0377 16.48C84.835 16.784 84.5417 17.0107 84.1577 17.16L85.4457 19H84.3257ZM84.3017 15.392C84.3017 15.0347 84.1843 14.76 83.9497 14.568C83.715 14.376 83.371 14.28 82.9177 14.28H81.7017V16.512H82.9177C83.371 16.512 83.715 16.416 83.9497 16.224C84.1843 16.0267 84.3017 15.7493 84.3017 15.392ZM90.7132 18.128V19H86.5132V13.4H90.6012V14.272H87.5532V15.728H90.2572V16.584H87.5532V18.128H90.7132ZM91.8726 13.4H94.3206C94.9179 13.4 95.4486 13.5173 95.9126 13.752C96.3766 13.9813 96.7366 14.3093 96.9926 14.736C97.2486 15.1573 97.3766 15.6453 97.3766 16.2C97.3766 16.7547 97.2486 17.2453 96.9926 17.672C96.7366 18.0933 96.3766 18.4213 95.9126 18.656C95.4486 18.8853 94.9179 19 94.3206 19H91.8726V13.4ZM94.2726 18.12C94.6833 18.12 95.0433 18.0427 95.3526 17.888C95.6673 17.728 95.9073 17.504 96.0726 17.216C96.2433 16.9227 96.3286 16.584 96.3286 16.2C96.3286 15.816 96.2433 15.48 96.0726 15.192C95.9073 14.8987 95.6673 14.6747 95.3526 14.52C95.0433 14.36 94.6833 14.28 94.2726 14.28H92.9126V18.12H94.2726ZM103.309 19.08C102.738 19.08 102.224 18.9573 101.765 18.712C101.306 18.4613 100.946 18.1173 100.685 17.68C100.424 17.2373 100.293 16.744 100.293 16.2C100.293 15.656 100.424 15.1653 100.685 14.728C100.946 14.2853 101.306 13.9413 101.765 13.696C102.224 13.4453 102.738 13.32 103.309 13.32C103.88 13.32 104.394 13.4453 104.853 13.696C105.312 13.9413 105.672 14.2827 105.933 14.72C106.194 15.1573 106.325 15.6507 106.325 16.2C106.325 16.7493 106.194 17.2427 105.933 17.68C105.672 18.1173 105.312 18.4613 104.853 18.712C104.394 18.9573 103.88 19.08 103.309 19.08ZM103.309 18.168C103.682 18.168 104.018 18.0853 104.317 17.92C104.616 17.7493 104.85 17.5147 105.021 17.216C105.192 16.912 105.277 16.5733 105.277 16.2C105.277 15.8267 105.192 15.4907 105.021 15.192C104.85 14.888 104.616 14.6533 104.317 14.488C104.018 14.3173 103.682 14.232 103.309 14.232C102.936 14.232 102.6 14.3173 102.301 14.488C102.002 14.6533 101.768 14.888 101.597 15.192C101.426 15.4907 101.341 15.8267 101.341 16.2C101.341 16.5733 101.426 16.912 101.597 17.216C101.768 17.5147 102.002 17.7493 102.301 17.92C102.6 18.0853 102.936 18.168 103.309 18.168ZM112.403 13.4V19H111.547L108.459 15.208V19H107.427V13.4H108.283L111.371 17.192V13.4H112.403Z" fill="white"/>
<path d="M57.5175 28.5C58.4475 28.5 59.2525 28.655 59.9325 28.965C60.6225 29.275 61.1525 29.715 61.5225 30.285C61.8925 30.855 62.0775 31.53 62.0775 32.31C62.0775 33.08 61.8925 33.755 61.5225 34.335C61.1525 34.905 60.6225 35.345 59.9325 35.655C59.2525 35.955 58.4475 36.105 57.5175 36.105H55.4025V39H52.9725V28.5H57.5175ZM57.3825 34.125C58.1125 34.125 58.6675 33.97 59.0475 33.66C59.4275 33.34 59.6175 32.89 59.6175 32.31C59.6175 31.72 59.4275 31.27 59.0475 30.96C58.6675 30.64 58.1125 30.48 57.3825 30.48H55.4025V34.125H57.3825ZM65.8824 31.995C66.1624 31.605 66.5374 31.31 67.0074 31.11C67.4874 30.91 68.0374 30.81 68.6574 30.81V32.97C68.3974 32.95 68.2224 32.94 68.1324 32.94C67.4624 32.94 66.9374 33.13 66.5574 33.51C66.1774 33.88 65.9874 34.44 65.9874 35.19V39H63.6474V30.93H65.8824V31.995ZM73.8155 39.12C72.9655 39.12 72.2005 38.945 71.5205 38.595C70.8505 38.235 70.3255 37.74 69.9455 37.11C69.5655 36.48 69.3755 35.765 69.3755 34.965C69.3755 34.165 69.5655 33.45 69.9455 32.82C70.3255 32.19 70.8505 31.7 71.5205 31.35C72.2005 30.99 72.9655 30.81 73.8155 30.81C74.6655 30.81 75.4255 30.99 76.0955 31.35C76.7655 31.7 77.2905 32.19 77.6705 32.82C78.0505 33.45 78.2405 34.165 78.2405 34.965C78.2405 35.765 78.0505 36.48 77.6705 37.11C77.2905 37.74 76.7655 38.235 76.0955 38.595C75.4255 38.945 74.6655 39.12 73.8155 39.12ZM73.8155 37.2C74.4155 37.2 74.9055 37 75.2855 36.6C75.6755 36.19 75.8705 35.645 75.8705 34.965C75.8705 34.285 75.6755 33.745 75.2855 33.345C74.9055 32.935 74.4155 32.73 73.8155 32.73C73.2155 32.73 72.7205 32.935 72.3305 33.345C71.9405 33.745 71.7455 34.285 71.7455 34.965C71.7455 35.645 71.9405 36.19 72.3305 36.6C72.7205 37 73.2155 37.2 73.8155 37.2ZM88.0246 27.87V39H85.7896V38.07C85.2096 38.77 84.3696 39.12 83.2696 39.12C82.5096 39.12 81.8196 38.95 81.1996 38.61C80.5896 38.27 80.1096 37.785 79.7596 37.155C79.4096 36.525 79.2346 35.795 79.2346 34.965C79.2346 34.135 79.4096 33.405 79.7596 32.775C80.1096 32.145 80.5896 31.66 81.1996 31.32C81.8196 30.98 82.5096 30.81 83.2696 30.81C84.2996 30.81 85.1046 31.135 85.6846 31.785V27.87H88.0246ZM83.6746 37.2C84.2646 37.2 84.7546 37 85.1446 36.6C85.5346 36.19 85.7296 35.645 85.7296 34.965C85.7296 34.285 85.5346 33.745 85.1446 33.345C84.7546 32.935 84.2646 32.73 83.6746 32.73C83.0746 32.73 82.5796 32.935 82.1896 33.345C81.7996 33.745 81.6046 34.285 81.6046 34.965C81.6046 35.645 81.7996 36.19 82.1896 36.6C82.5796 37 83.0746 37.2 83.6746 37.2ZM98.3204 30.93V39H96.1004V38.04C95.7904 38.39 95.4204 38.66 94.9904 38.85C94.5604 39.03 94.0954 39.12 93.5954 39.12C92.5354 39.12 91.6954 38.815 91.0754 38.205C90.4554 37.595 90.1454 36.69 90.1454 35.49V30.93H92.4854V35.145C92.4854 36.445 93.0304 37.095 94.1204 37.095C94.6804 37.095 95.1304 36.915 95.4704 36.555C95.8104 36.185 95.9804 35.64 95.9804 34.92V30.93H98.3204ZM104.388 39.12C103.528 39.12 102.753 38.945 102.063 38.595C101.383 38.235 100.848 37.74 100.458 37.11C100.078 36.48 99.8882 35.765 99.8882 34.965C99.8882 34.165 100.078 33.45 100.458 32.82C100.848 32.19 101.383 31.7 102.063 31.35C102.753 30.99 103.528 30.81 104.388 30.81C105.238 30.81 105.978 30.99 106.608 31.35C107.248 31.7 107.713 32.205 108.003 32.865L106.188 33.84C105.768 33.1 105.163 32.73 104.373 32.73C103.763 32.73 103.258 32.93 102.858 33.33C102.458 33.73 102.258 34.275 102.258 34.965C102.258 35.655 102.458 36.2 102.858 36.6C103.258 37 103.763 37.2 104.373 37.2C105.173 37.2 105.778 36.83 106.188 36.09L108.003 37.08C107.713 37.72 107.248 38.22 106.608 38.58C105.978 38.94 105.238 39.12 104.388 39.12ZM114.673 38.61C114.443 38.78 114.158 38.91 113.818 39C113.488 39.08 113.138 39.12 112.768 39.12C111.808 39.12 111.063 38.875 110.533 38.385C110.013 37.895 109.753 37.175 109.753 36.225V32.91H108.508V31.11H109.753V29.145H112.093V31.11H114.103V32.91H112.093V36.195C112.093 36.535 112.178 36.8 112.348 36.99C112.528 37.17 112.778 37.26 113.098 37.26C113.468 37.26 113.783 37.16 114.043 36.96L114.673 38.61ZM130.029 28.5V39H127.599V34.695H122.829V39H120.399V28.5H122.829V32.64H127.599V28.5H130.029ZM140.479 30.93V39H138.259V38.04C137.949 38.39 137.579 38.66 137.149 38.85C136.719 39.03 136.254 39.12 135.754 39.12C134.694 39.12 133.854 38.815 133.234 38.205C132.614 37.595 132.304 36.69 132.304 35.49V30.93H134.644V35.145C134.644 36.445 135.189 37.095 136.279 37.095C136.839 37.095 137.289 36.915 137.629 36.555C137.969 36.185 138.139 35.64 138.139 34.92V30.93H140.479ZM147.551 30.81C148.551 30.81 149.356 31.11 149.966 31.71C150.586 32.31 150.896 33.2 150.896 34.38V39H148.556V34.74C148.556 34.1 148.416 33.625 148.136 33.315C147.856 32.995 147.451 32.835 146.921 32.835C146.331 32.835 145.861 33.02 145.511 33.39C145.161 33.75 144.986 34.29 144.986 35.01V39H142.646V30.93H144.881V31.875C145.191 31.535 145.576 31.275 146.036 31.095C146.496 30.905 147.001 30.81 147.551 30.81ZM158.223 38.61C157.993 38.78 157.708 38.91 157.368 39C157.038 39.08 156.688 39.12 156.318 39.12C155.358 39.12 154.613 38.875 154.083 38.385C153.563 37.895 153.303 37.175 153.303 36.225V32.91H152.058V31.11H153.303V29.145H155.643V31.11H157.653V32.91H155.643V36.195C155.643 36.535 155.728 36.8 155.897 36.99C156.078 37.17 156.328 37.26 156.648 37.26C157.018 37.26 157.333 37.16 157.593 36.96L158.223 38.61Z" fill="white"/>
<path fill-rule="evenodd" clip-rule="evenodd" d="M41.7803 27.5C41.7803 36.0604 34.8774 43 26.3623 43C17.8472 43 10.9443 36.0604 10.9443 27.5C10.9443 18.9396 17.8472 12 26.3623 12C34.8774 12 41.7803 18.9396 41.7803 27.5Z" fill="#EA532A"/>
<path fill-rule="evenodd" clip-rule="evenodd" d="M28.2848 27.9561C28.2848 27.9561 28.2848 27.9561 28.2848 27.9561V27.9561C28.2848 27.9562 28.2847 27.9562 28.2847 27.9562H26.1262C24.9341 27.9562 23.9677 26.9898 23.9677 25.7977V25.4647C23.9677 24.2726 24.9341 23.3062 26.1262 23.3062H28.2847C28.2847 23.3062 28.2848 23.3062 28.2848 23.3061V23.3061C28.2848 23.3061 28.2848 23.3061 28.2848 23.3061C29.547 23.3061 30.5703 24.347 30.5703 25.6311C30.5703 26.9151 29.547 27.956 28.2848 27.9561ZM28.2848 20.2061C28.2848 20.2061 28.2848 20.2061 28.2848 20.2061V20.2061C28.2848 20.2062 28.2847 20.2062 28.2847 20.2062L24.6026 20.2061C22.569 20.2061 20.9204 21.8546 20.9204 23.8882V34.1824C20.9204 35.0239 21.6026 35.7061 22.4441 35.7061V35.7061C23.2856 35.7061 23.9677 35.0239 23.9677 34.1824V33.2147C23.9677 32.0226 24.9341 31.0562 26.1262 31.0562H28.2847C28.2847 31.0562 28.2848 31.0562 28.2848 31.0561V31.0561C28.2848 31.0561 28.2848 31.0561 28.2848 31.0561C31.23 31.056 33.6176 28.6272 33.6176 25.6311C33.6176 22.6349 31.23 20.2061 28.2848 20.2061Z" fill="white"/>
</g>
<defs>
<clipPath id="clip0_1032_2">
<rect width="176" height="54" fill="white"/>
</clipPath>
</defs>
</svg>
