<svg width="26" height="26" viewBox="0 0 26 26" fill="none" xmlns="http://www.w3.org/2000/svg">
<path fill-rule="evenodd" clip-rule="evenodd" d="M18.311 0C18.3661 2.8514 20.181 5.08418 22.996 5.8525C23.9097 6.10189 24.6563 6.86678 24.6563 7.81394V7.81394C24.6563 9.20284 23.5777 10.4184 22.2196 10.1275C21.4012 9.95216 20.5899 9.65343 19.7487 9.24924C19.126 8.95005 18.3763 9.38235 18.3763 10.0732V16.2791C18.3763 26.1386 7.1375 29.2197 2.61915 22.1527C0.0296665 18.097 1.16383 11.3113 8.04662 9.66419C9.52693 9.30994 10.8076 10.5681 10.8076 12.0902V12.1429C10.8076 13.0282 10.1576 13.7683 9.30198 13.9955C9.07947 14.0545 8.85981 14.119 8.64634 14.1887C6.57475 14.8595 5.4003 16.1153 5.72654 18.3306C6.35454 22.5739 14.4941 23.8298 13.8172 15.5381V0.00780025H18.311V0Z" fill="white"/>
</svg>
